<svg width="43" height="42" viewBox="0 0 43 42" fill="none" xmlns="http://www.w3.org/2000/svg">
<g clip-path="url(#clip0_1_49)">
<path d="M15.2853 9.74769e-06C-4.11431 6.89245 -3.08418 29.4495 7.46997 37.5262C12.4417 42.0313 14.8536 37.1753 14.8536 35.7655C17.6787 39.3997 26.3145 38.7418 25.5619 31.8556C24.8155 25.0509 14.65 21.0909 11.7694 15.295C9.91883 11.5668 9.61041 6.94257 15.2792 -0.0062561L15.2853 9.74769e-06Z" fill="#040303"/>
<path d="M27.7949 42C47.1637 35.0324 46.0472 12.4753 35.4622 4.44249C30.4781 -0.0438628 28.0786 4.81844 28.0848 6.22825C25.2412 2.60659 16.6115 3.29584 17.3888 10.1757C18.1598 16.9805 28.3439 20.8966 31.243 26.68C33.1059 30.3956 33.4328 35.0261 27.7887 41.9937L27.7949 42Z" fill="#3F2626"/>
</g>
<defs>
<clipPath id="clip0_1_49">
<rect width="43" height="42" fill="white"/>
</clipPath>
</defs>
</svg>