<svg width="43" height="42" viewBox="0 0 43 42" fill="none" xmlns="http://www.w3.org/2000/svg">
<g clip-path="url(#clip0_1_3)">
<path d="M15.2853 2.11829e-06C-4.11433 6.89244 -3.08421 29.4495 7.46995 37.5262C12.4417 42.0313 14.8535 37.1753 14.8535 35.7655C17.6787 39.3997 26.3144 38.7418 25.5619 31.8556C24.8155 25.0509 14.65 21.0909 11.7693 15.2949C9.91881 11.5668 9.61039 6.94257 15.2792 -0.00626373L15.2853 2.11829e-06Z" fill="#929292"/>
<path d="M27.7949 42C47.1637 35.0324 46.0472 12.4753 35.4622 4.44249C30.4781 -0.0438628 28.0786 4.81844 28.0848 6.22825C25.2411 2.60659 16.6115 3.29584 17.3888 10.1757C18.1598 16.9805 28.3439 20.8966 31.243 26.68C33.1059 30.3956 33.4328 35.0261 27.7887 41.9937L27.7949 42Z" fill="#929292"/>
</g>
<defs>
<clipPath id="clip0_1_3">
<rect width="43" height="42" fill="white"/>
</clipPath>
</defs>
</svg>